# xmcd
# 
# Track frame offsets:
#     182
#     10297
#     32297
#     51910
#     76947
#     104525
#     119392
#     140720
#     156942
#     182087
#     197070
# 
# Disc length: 2793
# 
# Revision: 2
# Processed by: cddbd v1.5.2PL0 Copyright (c) Steve Scherf et al.
# Submitted via: BonkEnc v1.0.8
# 
DISCID=900ae70b
DTITLE=Average White Band - Soul Searching
DYEAR=1976
DGENRE=Funk
TTITLE0=Overture
TTITLE1=Love Your Life
TTITLE2=I'm The One
TTITLE3=A Love Of Your Own
TTITLE4=Queen Of My Soul
TTITLE5=Soul Searching
TTITLE6=Goin' Home
TTITLE7=Everybody's Darling
TTITLE8=Would You Stay
TTITLE9=Sunny Days (Make Me think Of You)
TTITLE10=Digging Deeper (Finale)
EXTD=
EXTT0=
EXTT1=
EXTT2=
EXTT3=
EXTT4=
EXTT5=
EXTT6=
EXTT7=
EXTT8=
EXTT9=
EXTT10=
PLAYORDER=
